<mxfile host="app.diagrams.net" modified="2024-02-08T16:21:09.886Z" agent="Mozilla/5.0 (Windows NT 10.0; Win64; x64) AppleWebKit/537.36 (KHTML, like Gecko) Chrome/121.0.0.0 Safari/537.36" etag="h-r2O2wNYWaHwmTHdFAn" version="23.1.2" type="github">
  <diagram id="C5RBs43oDa-KdzZeNtuy" name="Page-1">
    <mxGraphModel dx="1969" dy="1924" grid="1" gridSize="10" guides="1" tooltips="1" connect="1" arrows="1" fold="1" page="1" pageScale="1" pageWidth="827" pageHeight="1169" math="0" shadow="0">
      <root>
        <mxCell id="WIyWlLk6GJQsqaUBKTNV-0" />
        <mxCell id="WIyWlLk6GJQsqaUBKTNV-1" parent="WIyWlLk6GJQsqaUBKTNV-0" />
        <mxCell id="WIyWlLk6GJQsqaUBKTNV-2" value="" style="rounded=0;html=1;jettySize=auto;orthogonalLoop=1;fontSize=11;endArrow=block;endFill=0;endSize=8;strokeWidth=1;shadow=0;labelBackgroundColor=none;edgeStyle=orthogonalEdgeStyle;" parent="WIyWlLk6GJQsqaUBKTNV-1" source="WIyWlLk6GJQsqaUBKTNV-3" target="WIyWlLk6GJQsqaUBKTNV-6" edge="1">
          <mxGeometry relative="1" as="geometry" />
        </mxCell>
        <mxCell id="WIyWlLk6GJQsqaUBKTNV-3" value="Lamp doesn&#39;t work" style="rounded=1;whiteSpace=wrap;html=1;fontSize=12;glass=0;strokeWidth=1;shadow=0;" parent="WIyWlLk6GJQsqaUBKTNV-1" vertex="1">
          <mxGeometry x="160" y="80" width="120" height="40" as="geometry" />
        </mxCell>
        <mxCell id="WIyWlLk6GJQsqaUBKTNV-4" value="Yes" style="rounded=0;html=1;jettySize=auto;orthogonalLoop=1;fontSize=11;endArrow=block;endFill=0;endSize=8;strokeWidth=1;shadow=0;labelBackgroundColor=none;edgeStyle=orthogonalEdgeStyle;" parent="WIyWlLk6GJQsqaUBKTNV-1" source="WIyWlLk6GJQsqaUBKTNV-6" target="WIyWlLk6GJQsqaUBKTNV-10" edge="1">
          <mxGeometry y="20" relative="1" as="geometry">
            <mxPoint as="offset" />
          </mxGeometry>
        </mxCell>
        <mxCell id="WIyWlLk6GJQsqaUBKTNV-5" value="No" style="edgeStyle=orthogonalEdgeStyle;rounded=0;html=1;jettySize=auto;orthogonalLoop=1;fontSize=11;endArrow=block;endFill=0;endSize=8;strokeWidth=1;shadow=0;labelBackgroundColor=none;" parent="WIyWlLk6GJQsqaUBKTNV-1" source="WIyWlLk6GJQsqaUBKTNV-6" target="WIyWlLk6GJQsqaUBKTNV-7" edge="1">
          <mxGeometry y="10" relative="1" as="geometry">
            <mxPoint as="offset" />
          </mxGeometry>
        </mxCell>
        <mxCell id="WIyWlLk6GJQsqaUBKTNV-6" value="Identity Gouvernance Management" style="rhombus;whiteSpace=wrap;html=1;shadow=0;fontFamily=Helvetica;fontSize=12;align=center;strokeWidth=1;spacing=6;spacingTop=-4;" parent="WIyWlLk6GJQsqaUBKTNV-1" vertex="1">
          <mxGeometry x="170" y="170" width="100" height="80" as="geometry" />
        </mxCell>
        <mxCell id="WIyWlLk6GJQsqaUBKTNV-7" value="Plug in lamp" style="rounded=1;whiteSpace=wrap;html=1;fontSize=12;glass=0;strokeWidth=1;shadow=0;" parent="WIyWlLk6GJQsqaUBKTNV-1" vertex="1">
          <mxGeometry x="320" y="190" width="120" height="40" as="geometry" />
        </mxCell>
        <mxCell id="WIyWlLk6GJQsqaUBKTNV-8" value="No" style="rounded=0;html=1;jettySize=auto;orthogonalLoop=1;fontSize=11;endArrow=block;endFill=0;endSize=8;strokeWidth=1;shadow=0;labelBackgroundColor=none;edgeStyle=orthogonalEdgeStyle;" parent="WIyWlLk6GJQsqaUBKTNV-1" source="WIyWlLk6GJQsqaUBKTNV-10" target="WIyWlLk6GJQsqaUBKTNV-11" edge="1">
          <mxGeometry x="0.3333" y="20" relative="1" as="geometry">
            <mxPoint as="offset" />
          </mxGeometry>
        </mxCell>
        <mxCell id="WIyWlLk6GJQsqaUBKTNV-9" value="Yes" style="edgeStyle=orthogonalEdgeStyle;rounded=0;html=1;jettySize=auto;orthogonalLoop=1;fontSize=11;endArrow=block;endFill=0;endSize=8;strokeWidth=1;shadow=0;labelBackgroundColor=none;" parent="WIyWlLk6GJQsqaUBKTNV-1" source="WIyWlLk6GJQsqaUBKTNV-10" target="WIyWlLk6GJQsqaUBKTNV-12" edge="1">
          <mxGeometry y="10" relative="1" as="geometry">
            <mxPoint as="offset" />
          </mxGeometry>
        </mxCell>
        <mxCell id="WIyWlLk6GJQsqaUBKTNV-10" value="Bulb&lt;br&gt;burned out?" style="rhombus;whiteSpace=wrap;html=1;shadow=0;fontFamily=Helvetica;fontSize=12;align=center;strokeWidth=1;spacing=6;spacingTop=-4;" parent="WIyWlLk6GJQsqaUBKTNV-1" vertex="1">
          <mxGeometry x="170" y="290" width="100" height="80" as="geometry" />
        </mxCell>
        <mxCell id="WIyWlLk6GJQsqaUBKTNV-11" value="Repair Lamp" style="rounded=1;whiteSpace=wrap;html=1;fontSize=12;glass=0;strokeWidth=1;shadow=0;" parent="WIyWlLk6GJQsqaUBKTNV-1" vertex="1">
          <mxGeometry x="160" y="430" width="120" height="40" as="geometry" />
        </mxCell>
        <mxCell id="WIyWlLk6GJQsqaUBKTNV-12" value="Replace Bulb" style="rounded=1;whiteSpace=wrap;html=1;fontSize=12;glass=0;strokeWidth=1;shadow=0;" parent="WIyWlLk6GJQsqaUBKTNV-1" vertex="1">
          <mxGeometry x="320" y="310" width="120" height="40" as="geometry" />
        </mxCell>
        <object lxType="collapsedRelation" sourceFactSheetId="3bd92546-2c88-4394-abe5-e115c05e1380" targetFactSheetId="a150b30c-0791-4697-baf8-0e4c35828d77" label="Group, User" id="pcWrC_nRyzjh7GWseDeY-16">
          <lx-collapsed-data>
            <object lxType="relation" lxName="relConsumerApplicationToInterface" lxId="a4177f07-c332-4617-a47c-59f02517bf4d" />
            <object lxType="factSheet" lxId="60aadccb-f2d3-49a2-a4f7-b12ad5b3c70d" />
            <object lxType="relation" lxName="relInterfaceToProviderApplication" lxId="38274836-b8c4-4612-a93a-a50181c87be0" />
          </lx-collapsed-data>
          <mxCell style="leanix_collapsed_relation;startArrow=classic;endArrow=none;edgeStyle=orthogonalEdgeStyle;orthogonal=1;" edge="1" parent="WIyWlLk6GJQsqaUBKTNV-1" source="pcWrC_nRyzjh7GWseDeY-64">
            <mxGeometry x="-0.9074" relative="1" as="geometry">
              <Array as="points">
                <mxPoint x="1650" y="280" />
                <mxPoint x="2332" y="280" />
              </Array>
              <mxPoint as="offset" />
              <mxPoint x="2332" y="178" as="targetPoint" />
            </mxGeometry>
          </mxCell>
        </object>
        <object lxType="collapsedRelation" sourceFactSheetId="4948219f-401c-4b0e-a8b0-7af1509d8390" targetFactSheetId="a150b30c-0791-4697-baf8-0e4c35828d77" label="Group, User" id="pcWrC_nRyzjh7GWseDeY-17">
          <lx-collapsed-data>
            <object lxType="relation" lxName="relConsumerApplicationToInterface" lxId="8594dfcd-df3d-4d03-848c-a3c6a75e108e" />
            <object lxType="factSheet" lxId="c64dbea2-d57f-4628-a54d-e96376a64c88" />
            <object lxType="relation" lxName="relInterfaceToProviderApplication" lxId="c9d5c60b-be05-41a9-b7ce-5f4d80e71d1c" />
          </lx-collapsed-data>
          <mxCell style="leanix_collapsed_relation;startArrow=classic;endArrow=none;edgeStyle=orthogonalEdgeStyle;orthogonal=1;" edge="1" parent="WIyWlLk6GJQsqaUBKTNV-1" source="pcWrC_nRyzjh7GWseDeY-63">
            <mxGeometry x="-0.9179" relative="1" as="geometry">
              <Array as="points">
                <mxPoint x="1540" y="280" />
                <mxPoint x="2332" y="280" />
              </Array>
              <mxPoint as="offset" />
              <mxPoint x="2332" y="178" as="targetPoint" />
            </mxGeometry>
          </mxCell>
        </object>
        <object lxType="collapsedRelation" sourceFactSheetId="4f3f6a8b-6115-4b44-a12a-5a1f5b2b0070" targetFactSheetId="a150b30c-0791-4697-baf8-0e4c35828d77" label="User" id="pcWrC_nRyzjh7GWseDeY-18">
          <lx-collapsed-data>
            <object lxType="relation" lxName="relConsumerApplicationToInterface" lxId="ccb0b913-3e1e-4b12-b3d9-6d254ef82322" />
            <object lxType="factSheet" lxId="557b142b-0253-4aec-93cf-54e3c93c22d7" />
            <object lxType="relation" lxName="relInterfaceToProviderApplication" lxId="93b052ac-3d34-4ad3-b5c9-5828c9e5a9c0" />
          </lx-collapsed-data>
          <mxCell style="leanix_collapsed_relation;startArrow=classic;endArrow=none;edgeStyle=orthogonalEdgeStyle;orthogonal=1;" edge="1" parent="WIyWlLk6GJQsqaUBKTNV-1" source="pcWrC_nRyzjh7GWseDeY-62">
            <mxGeometry x="-0.9262" relative="1" as="geometry">
              <Array as="points">
                <mxPoint x="1430" y="280" />
                <mxPoint x="2332" y="280" />
              </Array>
              <mxPoint as="offset" />
              <mxPoint x="2332" y="178" as="targetPoint" />
            </mxGeometry>
          </mxCell>
        </object>
        <object lxType="collapsedRelation" sourceFactSheetId="8649f864-5c4f-45f6-a512-7b785de8901a" targetFactSheetId="a150b30c-0791-4697-baf8-0e4c35828d77" label="User" id="pcWrC_nRyzjh7GWseDeY-19">
          <lx-collapsed-data>
            <object lxType="relation" lxName="relConsumerApplicationToInterface" lxId="7639ed48-b572-4cd1-ab75-994de51d415f" />
            <object lxType="factSheet" lxId="8cf6bd80-f8ad-4e63-b3b2-d8aaedfe2407" />
            <object lxType="relation" lxName="relInterfaceToProviderApplication" lxId="2a39cab0-07b6-45d8-ba02-f2dd1675bfa0" />
          </lx-collapsed-data>
          <mxCell style="leanix_collapsed_relation;startArrow=classic;endArrow=none;edgeStyle=orthogonalEdgeStyle;orthogonal=1;" edge="1" parent="WIyWlLk6GJQsqaUBKTNV-1" source="pcWrC_nRyzjh7GWseDeY-61">
            <mxGeometry x="-0.933" relative="1" as="geometry">
              <Array as="points">
                <mxPoint x="1320" y="280" />
                <mxPoint x="2332" y="280" />
              </Array>
              <mxPoint as="offset" />
              <mxPoint x="2332" y="178" as="targetPoint" />
            </mxGeometry>
          </mxCell>
        </object>
        <object lxType="collapsedRelation" sourceFactSheetId="78b8bca4-b58c-450f-b534-777491372fe9" targetFactSheetId="a150b30c-0791-4697-baf8-0e4c35828d77" label="User" id="pcWrC_nRyzjh7GWseDeY-37">
          <lx-collapsed-data>
            <object lxType="relation" lxName="relConsumerApplicationToInterface" lxId="3de078dd-62e6-4d39-9712-26b150381a04" />
            <object lxType="factSheet" lxId="e7911551-36af-450f-9da5-a57731d8ad37" lxLifecyclePhase="active" />
            <object lxType="relation" lxName="relInterfaceToProviderApplication" lxId="ca9cc577-2415-4fd6-ae80-ee7033edafc4" />
          </lx-collapsed-data>
          <mxCell style="leanix_collapsed_relation;startArrow=classic;endArrow=none;edgeStyle=orthogonalEdgeStyle;shape=connector;labelBackgroundColor=default;fontSize=11;fontFamily=Axiforma, Helvetica Neue, Helvetica, Arial, sans-serif;align=center;verticalAlign=middle;rounded=1;strokeColor=#496A8F;fontColor=default;dashed=0;orthogonal=1;" edge="1" parent="WIyWlLk6GJQsqaUBKTNV-1" source="pcWrC_nRyzjh7GWseDeY-43">
            <mxGeometry x="-0.9116" relative="1" as="geometry">
              <Array as="points">
                <mxPoint x="1532" y="-10" />
                <mxPoint x="2332" y="-10" />
              </Array>
              <mxPoint as="offset" />
              <mxPoint x="2332" y="133" as="targetPoint" />
            </mxGeometry>
          </mxCell>
        </object>
        <object lxType="collapsedRelation" sourceFactSheetId="20e87aa0-1edd-4825-831d-67c4333a69be" targetFactSheetId="a150b30c-0791-4697-baf8-0e4c35828d77" label="Group, User" id="pcWrC_nRyzjh7GWseDeY-38">
          <lx-collapsed-data>
            <object lxType="relation" lxName="relConsumerApplicationToInterface" lxId="92a93298-9c4d-4b60-951b-31bd22995f50" />
            <object lxType="factSheet" lxId="f325d5ba-eb3f-48df-af03-75ac51b1d65f" />
            <object lxType="relation" lxName="relInterfaceToProviderApplication" lxId="0fa405c2-1943-472f-ac91-2da43968101e" />
          </lx-collapsed-data>
          <mxCell style="leanix_collapsed_relation;startArrow=classic;endArrow=none;edgeStyle=orthogonalEdgeStyle;orthogonal=1;" edge="1" parent="WIyWlLk6GJQsqaUBKTNV-1" source="pcWrC_nRyzjh7GWseDeY-42">
            <mxGeometry x="-0.9206" y="4" relative="1" as="geometry">
              <Array as="points">
                <mxPoint x="1416" y="-10" />
                <mxPoint x="2332" y="-10" />
              </Array>
              <mxPoint as="offset" />
              <mxPoint x="2332" y="133" as="targetPoint" />
            </mxGeometry>
          </mxCell>
        </object>
        <object lxType="collapsedRelation" sourceFactSheetId="588b377f-eacf-41e0-b19f-4eb5b6f37c30" targetFactSheetId="a150b30c-0791-4697-baf8-0e4c35828d77" label="Group, User" id="pcWrC_nRyzjh7GWseDeY-39">
          <lx-collapsed-data>
            <object lxType="relation" lxName="relConsumerApplicationToInterface" lxId="49ae40b4-3a5a-4473-9ead-8262b89ac56b" />
            <object lxType="factSheet" lxId="96a70993-e157-4318-aa21-f3478c7b9a57" />
            <object lxType="relation" lxName="relInterfaceToProviderApplication" lxId="b283f067-86e2-41ea-b9ef-1a2e0e31fa93" />
          </lx-collapsed-data>
          <mxCell style="leanix_collapsed_relation;startArrow=classic;endArrow=none;edgeStyle=orthogonalEdgeStyle;orthogonal=1;" edge="1" parent="WIyWlLk6GJQsqaUBKTNV-1" source="pcWrC_nRyzjh7GWseDeY-41">
            <mxGeometry x="-0.928" relative="1" as="geometry">
              <Array as="points">
                <mxPoint x="1300" y="-10" />
                <mxPoint x="2332" y="-10" />
              </Array>
              <mxPoint as="offset" />
              <mxPoint x="2332" y="133" as="targetPoint" />
            </mxGeometry>
          </mxCell>
        </object>
        <object type="factSheet" label="Academy Online" factSheetType="Application" factSheetId="588b377f-eacf-41e0-b19f-4eb5b6f37c30" id="pcWrC_nRyzjh7GWseDeY-41">
          <mxCell style="shape=label;perimeter=rectanglePerimeter;fontSize=11;fontFamily=Axiforma, Helvetica Neue, Helvetica, Arial, sans-serif;align=center;verticalAlign=middle;fillColor=#0f7eb5;strokeColor=#0f7eb5;fontColor=#ffffff;startSize=45;whiteSpace=wrap;rounded=1;arcSize=10;html=1;fillColor=#0062c1;fontColor=#FFFFFF;strokeColor=#0062c1;" vertex="1" parent="WIyWlLk6GJQsqaUBKTNV-1">
            <mxGeometry x="1260" y="-130" width="80" height="45" as="geometry" />
          </mxCell>
        </object>
        <object type="factSheet" label="Accommodation" factSheetType="Application" factSheetId="20e87aa0-1edd-4825-831d-67c4333a69be" id="pcWrC_nRyzjh7GWseDeY-42">
          <mxCell style="shape=label;perimeter=rectanglePerimeter;fontSize=11;fontFamily=Axiforma, Helvetica Neue, Helvetica, Arial, sans-serif;align=center;verticalAlign=middle;fillColor=#0f7eb5;strokeColor=#0f7eb5;fontColor=#ffffff;startSize=45;whiteSpace=wrap;rounded=1;arcSize=10;html=1;fillColor=#ee6d9c;fontColor=#FFFFFF;strokeColor=#ee6d9c;" vertex="1" parent="WIyWlLk6GJQsqaUBKTNV-1">
            <mxGeometry x="1376" y="-130" width="80" height="45" as="geometry" />
          </mxCell>
        </object>
        <object type="factSheet" label="Accreditation Applicant Portal" factSheetType="Application" factSheetId="78b8bca4-b58c-450f-b534-777491372fe9" id="pcWrC_nRyzjh7GWseDeY-43">
          <mxCell style="shape=label;perimeter=rectanglePerimeter;fontSize=11;fontFamily=Axiforma, Helvetica Neue, Helvetica, Arial, sans-serif;align=center;verticalAlign=middle;fillColor=#0f7eb5;strokeColor=#0f7eb5;fontColor=#ffffff;startSize=45;whiteSpace=wrap;rounded=1;arcSize=10;html=1;fillColor=#ee6d9c;fontColor=#FFFFFF;strokeColor=#ee6d9c;" vertex="1" parent="WIyWlLk6GJQsqaUBKTNV-1">
            <mxGeometry x="1492" y="-130" width="80" height="45" as="geometry" />
          </mxCell>
        </object>
        <object type="factSheet" label="Kaba exos 9300" factSheetType="Application" factSheetId="8649f864-5c4f-45f6-a512-7b785de8901a" id="pcWrC_nRyzjh7GWseDeY-61">
          <mxCell style="shape=label;perimeter=rectanglePerimeter;fontSize=11;fontFamily=Axiforma, Helvetica Neue, Helvetica, Arial, sans-serif;align=center;verticalAlign=middle;fillColor=#0f7eb5;strokeColor=#0f7eb5;fontColor=#ffffff;startSize=45;whiteSpace=wrap;rounded=1;arcSize=10;html=1;fillColor=#f7dc17;fontColor=#000000;strokeColor=#f7dc17;" vertex="1" parent="WIyWlLk6GJQsqaUBKTNV-1">
            <mxGeometry x="1280" y="360" width="80" height="45" as="geometry" />
          </mxCell>
        </object>
        <object type="factSheet" label="Kimoce" factSheetType="Application" factSheetId="4f3f6a8b-6115-4b44-a12a-5a1f5b2b0070" id="pcWrC_nRyzjh7GWseDeY-62">
          <mxCell style="shape=label;perimeter=rectanglePerimeter;fontSize=11;fontFamily=Axiforma, Helvetica Neue, Helvetica, Arial, sans-serif;align=center;verticalAlign=middle;fillColor=#0f7eb5;strokeColor=#0f7eb5;fontColor=#ffffff;startSize=45;whiteSpace=wrap;rounded=1;arcSize=10;html=1;fillColor=#0062c1;fontColor=#FFFFFF;strokeColor=#0062c1;" vertex="1" parent="WIyWlLk6GJQsqaUBKTNV-1">
            <mxGeometry x="1390" y="360" width="80" height="45" as="geometry" />
          </mxCell>
        </object>
        <object type="factSheet" label="Legacy" factSheetType="Application" factSheetId="4948219f-401c-4b0e-a8b0-7af1509d8390" id="pcWrC_nRyzjh7GWseDeY-63">
          <mxCell style="shape=label;perimeter=rectanglePerimeter;fontSize=11;fontFamily=Axiforma, Helvetica Neue, Helvetica, Arial, sans-serif;align=center;verticalAlign=middle;fillColor=#0f7eb5;strokeColor=#0f7eb5;fontColor=#ffffff;startSize=45;whiteSpace=wrap;rounded=1;arcSize=10;html=1;fillColor=#35d680;fontColor=#000000;strokeColor=#35d680;" vertex="1" parent="WIyWlLk6GJQsqaUBKTNV-1">
            <mxGeometry x="1500" y="360" width="80" height="45" as="geometry" />
          </mxCell>
        </object>
        <object type="factSheet" label="Media Channel" factSheetType="Application" factSheetId="3bd92546-2c88-4394-abe5-e115c05e1380" id="pcWrC_nRyzjh7GWseDeY-64">
          <mxCell style="shape=label;perimeter=rectanglePerimeter;fontSize=11;fontFamily=Axiforma, Helvetica Neue, Helvetica, Arial, sans-serif;align=center;verticalAlign=middle;fillColor=#0f7eb5;strokeColor=#0f7eb5;fontColor=#ffffff;startSize=45;whiteSpace=wrap;rounded=1;arcSize=10;html=1;fillColor=#35d680;strokeColor=#35d680;fontColor=#000000" vertex="1" parent="WIyWlLk6GJQsqaUBKTNV-1">
            <mxGeometry x="1610" y="360" width="80" height="45" as="geometry" />
          </mxCell>
        </object>
        <object type="factSheet" label="User Registration Service" factSheetType="Application" factSheetId="f8505ab4-2706-4c58-884c-683e9ea03938" id="pcWrC_nRyzjh7GWseDeY-80">
          <mxCell style="shape=label;perimeter=rectanglePerimeter;fontSize=11;fontFamily=Axiforma, Helvetica Neue, Helvetica, Arial, sans-serif;align=center;verticalAlign=middle;fillColor=#0f7eb5;strokeColor=#0f7eb5;fontColor=#ffffff;startSize=45;whiteSpace=wrap;rounded=1;arcSize=10;html=1;fillColor=#0062c1;fontColor=#FFFFFF;strokeColor=#0062c1;" vertex="1" parent="WIyWlLk6GJQsqaUBKTNV-1">
            <mxGeometry x="1560" y="133" width="80" height="45" as="geometry" />
          </mxCell>
        </object>
        <mxCell id="pcWrC_nRyzjh7GWseDeY-81" value="" style="shape=table;startSize=0;container=1;collapsible=0;childLayout=tableLayout;" vertex="1" parent="WIyWlLk6GJQsqaUBKTNV-1">
          <mxGeometry x="1190" y="-300" width="490" height="60" as="geometry" />
        </mxCell>
        <mxCell id="pcWrC_nRyzjh7GWseDeY-82" value="" style="shape=tableRow;horizontal=0;startSize=0;swimlaneHead=0;swimlaneBody=0;strokeColor=inherit;top=0;left=0;bottom=0;right=0;collapsible=0;dropTarget=0;fillColor=none;points=[[0,0.5],[1,0.5]];portConstraint=eastwest;" vertex="1" parent="pcWrC_nRyzjh7GWseDeY-81">
          <mxGeometry width="490" height="20" as="geometry" />
        </mxCell>
        <mxCell id="pcWrC_nRyzjh7GWseDeY-83" value="Title" style="shape=partialRectangle;html=1;whiteSpace=wrap;connectable=0;strokeColor=#666666;overflow=hidden;fillColor=#f5f5f5;top=0;left=0;bottom=0;right=0;pointerEvents=1;fontColor=#333333;fontStyle=1" vertex="1" parent="pcWrC_nRyzjh7GWseDeY-82">
          <mxGeometry width="120" height="20" as="geometry">
            <mxRectangle width="120" height="20" as="alternateBounds" />
          </mxGeometry>
        </mxCell>
        <mxCell id="pcWrC_nRyzjh7GWseDeY-84" value="IGM integration overview" style="shape=partialRectangle;html=1;whiteSpace=wrap;connectable=0;strokeColor=inherit;overflow=hidden;fillColor=none;top=0;left=0;bottom=0;right=0;pointerEvents=1;" vertex="1" parent="pcWrC_nRyzjh7GWseDeY-82">
          <mxGeometry x="120" width="370" height="20" as="geometry">
            <mxRectangle width="370" height="20" as="alternateBounds" />
          </mxGeometry>
        </mxCell>
        <mxCell id="pcWrC_nRyzjh7GWseDeY-85" value="" style="shape=tableRow;horizontal=0;startSize=0;swimlaneHead=0;swimlaneBody=0;strokeColor=inherit;top=0;left=0;bottom=0;right=0;collapsible=0;dropTarget=0;fillColor=none;points=[[0,0.5],[1,0.5]];portConstraint=eastwest;" vertex="1" parent="pcWrC_nRyzjh7GWseDeY-81">
          <mxGeometry y="20" width="490" height="21" as="geometry" />
        </mxCell>
        <mxCell id="pcWrC_nRyzjh7GWseDeY-86" value="Last Updated by" style="shape=partialRectangle;html=1;whiteSpace=wrap;connectable=0;strokeColor=#666666;overflow=hidden;fillColor=#f5f5f5;top=0;left=0;bottom=0;right=0;pointerEvents=1;fontColor=#333333;fontStyle=1" vertex="1" parent="pcWrC_nRyzjh7GWseDeY-85">
          <mxGeometry width="120" height="21" as="geometry">
            <mxRectangle width="120" height="21" as="alternateBounds" />
          </mxGeometry>
        </mxCell>
        <mxCell id="pcWrC_nRyzjh7GWseDeY-87" value="Seung Ho, Choo" style="shape=partialRectangle;html=1;whiteSpace=wrap;connectable=0;strokeColor=inherit;overflow=hidden;fillColor=none;top=0;left=0;bottom=0;right=0;pointerEvents=1;" vertex="1" parent="pcWrC_nRyzjh7GWseDeY-85">
          <mxGeometry x="120" width="370" height="21" as="geometry">
            <mxRectangle width="370" height="21" as="alternateBounds" />
          </mxGeometry>
        </mxCell>
        <mxCell id="pcWrC_nRyzjh7GWseDeY-88" value="" style="shape=tableRow;horizontal=0;startSize=0;swimlaneHead=0;swimlaneBody=0;strokeColor=inherit;top=0;left=0;bottom=0;right=0;collapsible=0;dropTarget=0;fillColor=none;points=[[0,0.5],[1,0.5]];portConstraint=eastwest;" vertex="1" parent="pcWrC_nRyzjh7GWseDeY-81">
          <mxGeometry y="41" width="490" height="19" as="geometry" />
        </mxCell>
        <mxCell id="pcWrC_nRyzjh7GWseDeY-89" value="Last Updated Date" style="shape=partialRectangle;html=1;whiteSpace=wrap;connectable=0;strokeColor=#666666;overflow=hidden;fillColor=#f5f5f5;top=0;left=0;bottom=0;right=0;pointerEvents=1;fontColor=#333333;fontStyle=1" vertex="1" parent="pcWrC_nRyzjh7GWseDeY-88">
          <mxGeometry width="120" height="19" as="geometry">
            <mxRectangle width="120" height="19" as="alternateBounds" />
          </mxGeometry>
        </mxCell>
        <mxCell id="pcWrC_nRyzjh7GWseDeY-90" value="Jan. 2024" style="shape=partialRectangle;html=1;whiteSpace=wrap;connectable=0;strokeColor=inherit;overflow=hidden;fillColor=none;top=0;left=0;bottom=0;right=0;pointerEvents=1;" vertex="1" parent="pcWrC_nRyzjh7GWseDeY-88">
          <mxGeometry x="120" width="370" height="19" as="geometry">
            <mxRectangle width="370" height="19" as="alternateBounds" />
          </mxGeometry>
        </mxCell>
        <object type="factSheet" label="&lt;b&gt;Identity &lt;br&gt;Governance &lt;br&gt;Managemen&lt;/b&gt;t" factSheetType="Application" factSheetId="a150b30c-0791-4697-baf8-0e4c35828d77" id="pcWrC_nRyzjh7GWseDeY-91">
          <mxCell style="shape=label;perimeter=rectanglePerimeter;fontSize=11;fontFamily=Axiforma, Helvetica Neue, Helvetica, Arial, sans-serif;align=center;verticalAlign=middle;fillColor=#0f7eb5;strokeColor=#0f7eb5;fontColor=#ffffff;startSize=45;whiteSpace=wrap;rounded=1;arcSize=10;html=1;fillColor=#f7dc17;fontColor=#000000;strokeColor=#f7dc17;" vertex="1" parent="WIyWlLk6GJQsqaUBKTNV-1">
            <mxGeometry x="2280" y="700" width="170" height="95" as="geometry" />
          </mxCell>
        </object>
        <object type="factSheet" label="SAP accounts" factSheetType="Application" factSheetId="4e930027-1eaf-47a0-bd06-682669f0a0be" id="pcWrC_nRyzjh7GWseDeY-92">
          <mxCell style="shape=label;perimeter=rectanglePerimeter;fontSize=11;fontFamily=Axiforma, Helvetica Neue, Helvetica, Arial, sans-serif;align=center;verticalAlign=middle;fillColor=#0f7eb5;strokeColor=#0f7eb5;fontColor=#ffffff;startSize=45;whiteSpace=wrap;rounded=1;arcSize=10;html=1;fillColor=#f7dc17;fontColor=#000000;strokeColor=#f7dc17;" vertex="1" parent="WIyWlLk6GJQsqaUBKTNV-1">
            <mxGeometry x="2068" y="617.5" width="90" height="70" as="geometry" />
          </mxCell>
        </object>
        <object type="factSheet" label="Azure AD" factSheetType="Application" factSheetId="c3ded5f4-ad67-49ee-9abd-1865e4881e1f" id="pcWrC_nRyzjh7GWseDeY-93">
          <mxCell style="shape=label;perimeter=rectanglePerimeter;fontSize=11;fontFamily=Axiforma, Helvetica Neue, Helvetica, Arial, sans-serif;align=center;verticalAlign=middle;fillColor=#0f7eb5;strokeColor=#0f7eb5;fontColor=#ffffff;startSize=45;whiteSpace=wrap;rounded=1;arcSize=10;html=1;fillColor=#f7dc17;fontColor=#000000;strokeColor=#f7dc17;" vertex="1" parent="WIyWlLk6GJQsqaUBKTNV-1">
            <mxGeometry x="2251" y="584" width="80" height="45" as="geometry" />
          </mxCell>
        </object>
        <object type="factSheet" label="FAME users" factSheetType="Application" factSheetId="c2974416-8f2b-426d-b62a-706bacb31a5a" id="pcWrC_nRyzjh7GWseDeY-94">
          <mxCell style="shape=label;perimeter=rectanglePerimeter;fontSize=11;fontFamily=Axiforma, Helvetica Neue, Helvetica, Arial, sans-serif;align=center;verticalAlign=middle;fillColor=#0f7eb5;strokeColor=#0f7eb5;fontColor=#ffffff;startSize=45;whiteSpace=wrap;rounded=1;arcSize=10;html=1;fillColor=#ee6d9c;fontColor=#FFFFFF;strokeColor=#ee6d9c;" vertex="1" parent="WIyWlLk6GJQsqaUBKTNV-1">
            <mxGeometry x="2232" y="880" width="130" height="70" as="geometry" />
          </mxCell>
        </object>
        <object type="factSheet" label="CARE" factSheetType="Application" factSheetId="4e930027-1eaf-47a0-bd06-682669f0a0be" id="pcWrC_nRyzjh7GWseDeY-107">
          <mxCell style="shape=label;perimeter=rectanglePerimeter;fontSize=11;fontFamily=Axiforma, Helvetica Neue, Helvetica, Arial, sans-serif;align=center;verticalAlign=middle;fillColor=#0f7eb5;strokeColor=#0f7eb5;fontColor=#ffffff;startSize=45;whiteSpace=wrap;rounded=1;arcSize=10;html=1;fillColor=#f7dc17;fontColor=#000000;strokeColor=#f7dc17;" vertex="1" parent="WIyWlLk6GJQsqaUBKTNV-1">
            <mxGeometry x="2367" y="562" width="80" height="45" as="geometry" />
          </mxCell>
        </object>
        <object type="factSheet" label="Split Apps&lt;br&gt;Travel, etc" factSheetType="Application" factSheetId="f88ba9fb-6682-423a-80e4-6531f1c1e0b2" id="pcWrC_nRyzjh7GWseDeY-112">
          <mxCell style="shape=label;perimeter=rectanglePerimeter;fontSize=11;fontFamily=Axiforma, Helvetica Neue, Helvetica, Arial, sans-serif;align=center;verticalAlign=middle;fillColor=#0f7eb5;strokeColor=#0f7eb5;fontColor=#ffffff;startSize=45;whiteSpace=wrap;rounded=1;arcSize=10;html=1;fillColor=#ee6d9c;fontColor=#FFFFFF;strokeColor=#ee6d9c;" vertex="1" parent="WIyWlLk6GJQsqaUBKTNV-1">
            <mxGeometry x="2740" y="872.5" width="110" height="85" as="geometry" />
          </mxCell>
        </object>
        <object type="factSheet" label="Person Directory Service" factSheetType="Application" factSheetId="c3ded5f4-ad67-49ee-9abd-1865e4881e1f" id="pcWrC_nRyzjh7GWseDeY-113">
          <mxCell style="shape=label;perimeter=rectanglePerimeter;fontSize=11;fontFamily=Axiforma, Helvetica Neue, Helvetica, Arial, sans-serif;align=center;verticalAlign=middle;fillColor=#0f7eb5;strokeColor=#0f7eb5;fontColor=#ffffff;startSize=45;whiteSpace=wrap;rounded=1;arcSize=10;html=1;fillColor=#f7dc17;fontColor=#000000;strokeColor=#f7dc17;" vertex="1" parent="WIyWlLk6GJQsqaUBKTNV-1">
            <mxGeometry x="2490" y="880" width="110" height="70" as="geometry" />
          </mxCell>
        </object>
        <mxCell id="pcWrC_nRyzjh7GWseDeY-122" value="" style="endArrow=classic;html=1;rounded=0;exitX=0.974;exitY=0.686;exitDx=0;exitDy=0;exitPerimeter=0;" edge="1" parent="WIyWlLk6GJQsqaUBKTNV-1" source="pcWrC_nRyzjh7GWseDeY-92">
          <mxGeometry relative="1" as="geometry">
            <mxPoint x="2120" y="707" as="sourcePoint" />
            <mxPoint x="2280" y="707" as="targetPoint" />
          </mxGeometry>
        </mxCell>
        <mxCell id="pcWrC_nRyzjh7GWseDeY-123" value="Create Identity" style="edgeLabel;resizable=0;html=1;align=center;verticalAlign=middle;" connectable="0" vertex="1" parent="pcWrC_nRyzjh7GWseDeY-122">
          <mxGeometry relative="1" as="geometry" />
        </mxCell>
        <mxCell id="pcWrC_nRyzjh7GWseDeY-124" value="SAP ID" style="edgeLabel;resizable=0;html=1;align=left;verticalAlign=bottom;" connectable="0" vertex="1" parent="pcWrC_nRyzjh7GWseDeY-122">
          <mxGeometry x="-1" relative="1" as="geometry">
            <mxPoint x="-38" y="12" as="offset" />
          </mxGeometry>
        </mxCell>
        <mxCell id="pcWrC_nRyzjh7GWseDeY-125" value="Trigram" style="edgeLabel;resizable=0;html=1;align=right;verticalAlign=bottom;" connectable="0" vertex="1" parent="pcWrC_nRyzjh7GWseDeY-122">
          <mxGeometry x="1" relative="1" as="geometry">
            <mxPoint x="40" as="offset" />
          </mxGeometry>
        </mxCell>
        <mxCell id="pcWrC_nRyzjh7GWseDeY-128" value="" style="endArrow=classic;html=1;rounded=0;exitX=0.327;exitY=0.056;exitDx=0;exitDy=0;entryX=0.5;entryY=1;entryDx=0;entryDy=0;exitPerimeter=0;" edge="1" parent="WIyWlLk6GJQsqaUBKTNV-1" source="pcWrC_nRyzjh7GWseDeY-91" target="pcWrC_nRyzjh7GWseDeY-93">
          <mxGeometry relative="1" as="geometry">
            <mxPoint x="2331" y="697.75" as="sourcePoint" />
            <mxPoint x="2521" y="614" as="targetPoint" />
          </mxGeometry>
        </mxCell>
        <mxCell id="pcWrC_nRyzjh7GWseDeY-129" value="Create / update&lt;br&gt;&amp;nbsp;account" style="edgeLabel;resizable=0;html=1;align=center;verticalAlign=middle;" connectable="0" vertex="1" parent="pcWrC_nRyzjh7GWseDeY-128">
          <mxGeometry relative="1" as="geometry" />
        </mxCell>
        <mxCell id="pcWrC_nRyzjh7GWseDeY-130" value="trigram" style="edgeLabel;resizable=0;html=1;align=left;verticalAlign=bottom;" connectable="0" vertex="1" parent="pcWrC_nRyzjh7GWseDeY-128">
          <mxGeometry x="-1" relative="1" as="geometry" />
        </mxCell>
        <mxCell id="pcWrC_nRyzjh7GWseDeY-131" value="AD account" style="edgeLabel;resizable=0;html=1;align=right;verticalAlign=bottom;" connectable="0" vertex="1" parent="pcWrC_nRyzjh7GWseDeY-128">
          <mxGeometry x="1" relative="1" as="geometry" />
        </mxCell>
        <mxCell id="pcWrC_nRyzjh7GWseDeY-133" value="&lt;br&gt;" style="endArrow=classic;html=1;rounded=0;exitX=-0.003;exitY=0.961;exitDx=0;exitDy=0;exitPerimeter=0;entryX=0.162;entryY=-0.029;entryDx=0;entryDy=0;entryPerimeter=0;" edge="1" parent="WIyWlLk6GJQsqaUBKTNV-1" source="pcWrC_nRyzjh7GWseDeY-91" target="pcWrC_nRyzjh7GWseDeY-94">
          <mxGeometry relative="1" as="geometry">
            <mxPoint x="2310" y="640" as="sourcePoint" />
            <mxPoint x="2470" y="640" as="targetPoint" />
          </mxGeometry>
        </mxCell>
        <mxCell id="pcWrC_nRyzjh7GWseDeY-134" value="Update &lt;br&gt;account" style="edgeLabel;resizable=0;html=1;align=center;verticalAlign=middle;" connectable="0" vertex="1" parent="pcWrC_nRyzjh7GWseDeY-133">
          <mxGeometry relative="1" as="geometry">
            <mxPoint x="-5" as="offset" />
          </mxGeometry>
        </mxCell>
        <mxCell id="pcWrC_nRyzjh7GWseDeY-135" value="trigram" style="edgeLabel;resizable=0;html=1;align=left;verticalAlign=bottom;" connectable="0" vertex="1" parent="pcWrC_nRyzjh7GWseDeY-133">
          <mxGeometry x="-1" relative="1" as="geometry" />
        </mxCell>
        <mxCell id="pcWrC_nRyzjh7GWseDeY-136" value="edit FAME rights" style="edgeLabel;resizable=0;html=1;align=right;verticalAlign=bottom;" connectable="0" vertex="1" parent="pcWrC_nRyzjh7GWseDeY-133">
          <mxGeometry x="1" relative="1" as="geometry">
            <mxPoint x="47" y="12" as="offset" />
          </mxGeometry>
        </mxCell>
        <mxCell id="pcWrC_nRyzjh7GWseDeY-138" value="" style="endArrow=classic;html=1;rounded=0;exitX=0.75;exitY=0;exitDx=0;exitDy=0;entryX=0.3;entryY=1.011;entryDx=0;entryDy=0;entryPerimeter=0;" edge="1" parent="WIyWlLk6GJQsqaUBKTNV-1" source="pcWrC_nRyzjh7GWseDeY-94" target="pcWrC_nRyzjh7GWseDeY-91">
          <mxGeometry relative="1" as="geometry">
            <mxPoint x="2310" y="640" as="sourcePoint" />
            <mxPoint x="2470" y="640" as="targetPoint" />
          </mxGeometry>
        </mxCell>
        <mxCell id="pcWrC_nRyzjh7GWseDeY-139" value="Link Person &lt;br&gt;with existing identity" style="edgeLabel;resizable=0;html=1;align=center;verticalAlign=middle;" connectable="0" vertex="1" parent="pcWrC_nRyzjh7GWseDeY-138">
          <mxGeometry relative="1" as="geometry" />
        </mxCell>
        <mxCell id="pcWrC_nRyzjh7GWseDeY-140" value="create Fame user" style="edgeLabel;resizable=0;html=1;align=left;verticalAlign=bottom;" connectable="0" vertex="1" parent="pcWrC_nRyzjh7GWseDeY-138">
          <mxGeometry x="-1" relative="1" as="geometry">
            <mxPoint x="-19" y="10" as="offset" />
          </mxGeometry>
        </mxCell>
        <mxCell id="pcWrC_nRyzjh7GWseDeY-141" value="UPN" style="edgeLabel;resizable=0;html=1;align=right;verticalAlign=bottom;" connectable="0" vertex="1" parent="pcWrC_nRyzjh7GWseDeY-138">
          <mxGeometry x="1" relative="1" as="geometry">
            <mxPoint x="19" y="4" as="offset" />
          </mxGeometry>
        </mxCell>
        <mxCell id="pcWrC_nRyzjh7GWseDeY-142" value="" style="endArrow=classic;html=1;rounded=0;entryX=0;entryY=0.5;entryDx=0;entryDy=0;exitX=1;exitY=0.5;exitDx=0;exitDy=0;" edge="1" parent="WIyWlLk6GJQsqaUBKTNV-1" source="pcWrC_nRyzjh7GWseDeY-94" target="pcWrC_nRyzjh7GWseDeY-113">
          <mxGeometry relative="1" as="geometry">
            <mxPoint x="2350" y="910" as="sourcePoint" />
            <mxPoint x="2531.85" y="914.6700000000001" as="targetPoint" />
          </mxGeometry>
        </mxCell>
        <mxCell id="pcWrC_nRyzjh7GWseDeY-143" value="creates&lt;br&gt;PDS ID" style="edgeLabel;resizable=0;html=1;align=center;verticalAlign=middle;" connectable="0" vertex="1" parent="pcWrC_nRyzjh7GWseDeY-142">
          <mxGeometry relative="1" as="geometry" />
        </mxCell>
        <mxCell id="pcWrC_nRyzjh7GWseDeY-144" value="FAME ID" style="edgeLabel;resizable=0;html=1;align=left;verticalAlign=bottom;" connectable="0" vertex="1" parent="pcWrC_nRyzjh7GWseDeY-142">
          <mxGeometry x="-1" relative="1" as="geometry">
            <mxPoint x="-42" as="offset" />
          </mxGeometry>
        </mxCell>
        <mxCell id="pcWrC_nRyzjh7GWseDeY-145" value="PDS ID" style="edgeLabel;resizable=0;html=1;align=right;verticalAlign=bottom;" connectable="0" vertex="1" parent="pcWrC_nRyzjh7GWseDeY-142">
          <mxGeometry x="1" relative="1" as="geometry">
            <mxPoint x="20" as="offset" />
          </mxGeometry>
        </mxCell>
        <mxCell id="pcWrC_nRyzjh7GWseDeY-147" value="" style="endArrow=classic;html=1;rounded=0;exitX=0;exitY=0.5;exitDx=0;exitDy=0;entryX=1;entryY=0.5;entryDx=0;entryDy=0;" edge="1" parent="WIyWlLk6GJQsqaUBKTNV-1" source="pcWrC_nRyzjh7GWseDeY-112" target="pcWrC_nRyzjh7GWseDeY-113">
          <mxGeometry relative="1" as="geometry">
            <mxPoint x="2750" y="920" as="sourcePoint" />
            <mxPoint x="2660" y="910" as="targetPoint" />
          </mxGeometry>
        </mxCell>
        <mxCell id="pcWrC_nRyzjh7GWseDeY-148" value="links with PDS ID" style="edgeLabel;resizable=0;html=1;align=center;verticalAlign=middle;" connectable="0" vertex="1" parent="pcWrC_nRyzjh7GWseDeY-147">
          <mxGeometry relative="1" as="geometry" />
        </mxCell>
        <mxCell id="pcWrC_nRyzjh7GWseDeY-149" value="invite&amp;nbsp;&lt;br&gt;user" style="edgeLabel;resizable=0;html=1;align=left;verticalAlign=bottom;" connectable="0" vertex="1" parent="pcWrC_nRyzjh7GWseDeY-147">
          <mxGeometry x="-1" relative="1" as="geometry" />
        </mxCell>
        <mxCell id="pcWrC_nRyzjh7GWseDeY-150" value="PDS ID" style="edgeLabel;resizable=0;html=1;align=right;verticalAlign=bottom;" connectable="0" vertex="1" parent="pcWrC_nRyzjh7GWseDeY-147">
          <mxGeometry x="1" relative="1" as="geometry" />
        </mxCell>
        <mxCell id="pcWrC_nRyzjh7GWseDeY-151" value="" style="endArrow=classic;html=1;rounded=0;exitX=0.465;exitY=-0.021;exitDx=0;exitDy=0;exitPerimeter=0;entryX=0.575;entryY=1.007;entryDx=0;entryDy=0;entryPerimeter=0;" edge="1" parent="WIyWlLk6GJQsqaUBKTNV-1" target="pcWrC_nRyzjh7GWseDeY-107">
          <mxGeometry relative="1" as="geometry">
            <mxPoint x="2411.05" y="698.0050000000001" as="sourcePoint" />
            <mxPoint x="2574" y="655" as="targetPoint" />
          </mxGeometry>
        </mxCell>
        <mxCell id="pcWrC_nRyzjh7GWseDeY-152" value="Create edit" style="edgeLabel;resizable=0;html=1;align=center;verticalAlign=middle;" connectable="0" vertex="1" parent="pcWrC_nRyzjh7GWseDeY-151">
          <mxGeometry relative="1" as="geometry" />
        </mxCell>
        <mxCell id="pcWrC_nRyzjh7GWseDeY-153" value="trigram" style="edgeLabel;resizable=0;html=1;align=left;verticalAlign=bottom;" connectable="0" vertex="1" parent="pcWrC_nRyzjh7GWseDeY-151">
          <mxGeometry x="-1" relative="1" as="geometry">
            <mxPoint x="-11" y="12" as="offset" />
          </mxGeometry>
        </mxCell>
        <mxCell id="pcWrC_nRyzjh7GWseDeY-154" value="user" style="edgeLabel;resizable=0;html=1;align=right;verticalAlign=bottom;" connectable="0" vertex="1" parent="pcWrC_nRyzjh7GWseDeY-151">
          <mxGeometry x="1" relative="1" as="geometry" />
        </mxCell>
        <mxCell id="pcWrC_nRyzjh7GWseDeY-155" value="" style="endArrow=none;dashed=1;html=1;rounded=0;entryX=1;entryY=0.5;entryDx=0;entryDy=0;exitX=0.415;exitY=0.01;exitDx=0;exitDy=0;exitPerimeter=0;" edge="1" parent="WIyWlLk6GJQsqaUBKTNV-1" source="pcWrC_nRyzjh7GWseDeY-112" target="pcWrC_nRyzjh7GWseDeY-91">
          <mxGeometry width="50" height="50" relative="1" as="geometry">
            <mxPoint x="2790" y="870" as="sourcePoint" />
            <mxPoint x="2840" y="820" as="targetPoint" />
          </mxGeometry>
        </mxCell>
        <mxCell id="pcWrC_nRyzjh7GWseDeY-156" value="not really synchronised" style="edgeLabel;html=1;align=center;verticalAlign=middle;resizable=0;points=[];" vertex="1" connectable="0" parent="pcWrC_nRyzjh7GWseDeY-155">
          <mxGeometry x="-0.0989" relative="1" as="geometry">
            <mxPoint as="offset" />
          </mxGeometry>
        </mxCell>
        <object type="factSheet" label="Apps in &lt;br&gt;General" factSheetType="Application" factSheetId="81e82283-552a-4d8f-a5e4-d4f9e5ef8d28" id="pcWrC_nRyzjh7GWseDeY-157">
          <mxCell style="shape=label;perimeter=rectanglePerimeter;fontSize=11;fontFamily=Axiforma, Helvetica Neue, Helvetica, Arial, sans-serif;align=center;verticalAlign=middle;fillColor=#0f7eb5;strokeColor=#0f7eb5;fontColor=#ffffff;startSize=45;whiteSpace=wrap;rounded=1;arcSize=10;html=1;fillColor=#0062c1;fontColor=#FFFFFF;strokeColor=#0062c1;" vertex="1" parent="WIyWlLk6GJQsqaUBKTNV-1">
            <mxGeometry x="2660" y="630" width="140" height="45" as="geometry" />
          </mxCell>
        </object>
        <mxCell id="pcWrC_nRyzjh7GWseDeY-158" value="" style="endArrow=classic;html=1;rounded=0;entryX=0.038;entryY=0.904;entryDx=0;entryDy=0;entryPerimeter=0;" edge="1" parent="WIyWlLk6GJQsqaUBKTNV-1" source="pcWrC_nRyzjh7GWseDeY-91" target="pcWrC_nRyzjh7GWseDeY-157">
          <mxGeometry relative="1" as="geometry">
            <mxPoint x="2450" y="730" as="sourcePoint" />
            <mxPoint x="2610" y="730" as="targetPoint" />
          </mxGeometry>
        </mxCell>
        <mxCell id="pcWrC_nRyzjh7GWseDeY-159" value="edit / manage account&lt;br&gt;give rights&lt;br&gt;include in BR&lt;br&gt;" style="edgeLabel;resizable=0;html=1;align=center;verticalAlign=middle;" connectable="0" vertex="1" parent="pcWrC_nRyzjh7GWseDeY-158">
          <mxGeometry relative="1" as="geometry" />
        </mxCell>
        <mxCell id="pcWrC_nRyzjh7GWseDeY-160" value="Trigram" style="edgeLabel;resizable=0;html=1;align=left;verticalAlign=bottom;" connectable="0" vertex="1" parent="pcWrC_nRyzjh7GWseDeY-158">
          <mxGeometry x="-1" relative="1" as="geometry">
            <mxPoint x="-40" y="4" as="offset" />
          </mxGeometry>
        </mxCell>
        <mxCell id="pcWrC_nRyzjh7GWseDeY-161" value="account" style="edgeLabel;resizable=0;html=1;align=right;verticalAlign=bottom;" connectable="0" vertex="1" parent="pcWrC_nRyzjh7GWseDeY-158">
          <mxGeometry x="1" relative="1" as="geometry">
            <mxPoint x="35" as="offset" />
          </mxGeometry>
        </mxCell>
      </root>
    </mxGraphModel>
  </diagram>
</mxfile>
